# xmcd CD database file
#
# Track frame offsets:
#	150
#	15975
#	28752
#	50550
#	66182
#	83470
#	99935
#	114595
#	126957
#	144497
#	157130
#	174227
#	188892
#
# Disc length: 2714 seconds
#
# Revision: 0
# Processed by: cddbd v1.5.2PL0 Copyright (c) Steve Scherf et al.
# Submitted via: CDex 1.70beta2
#
DISCID=a40a980d
DTITLE=Tokyo Hot Club Band - Train Blue
DYEAR=2000
DGENRE=Jazz
TTITLE0=Train Blue
TTITLE1=Cabin Windows
TTITLE2=Spain
TTITLE3=How High The Moon
TTITLE4=Lullaby Of Birdland
TTITLE5=Donna Lee
TTITLE6=Liberty City
TTITLE7=City Night Line
TTITLE8=Duce Ambiance
TTITLE9=Fidele
TTITLE10=I Found A New Baby
TTITLE11=I'm Gettin' Sentimental Over You
TTITLE12=I Remember Clifford
EXTD=YEAR: 2000
EXTT0=
EXTT1=
EXTT2=
EXTT3=
EXTT4=
EXTT5=
EXTT6=
EXTT7=
EXTT8=
EXTT9=
EXTT10=
EXTT11=
EXTT12=
PLAYORDER=
